<svg xmlns="http://www.w3.org/2000/svg" width="900" height="560" viewBox="0 0 900 560"><defs><linearGradient id="g" x1="0" y1="0" x2="1" y2="1"><stop stop-color="#355c4a"/><stop offset="1" stop-color="#9cc5a1"/></linearGradient><filter id="s"><feDropShadow dx="0" dy="8" stdDeviation="10" flood-opacity=".25"/></filter></defs><rect width="900" height="560" fill="url(#g)"/><circle cx="720" cy="160" r="58" fill="#fff4"/><path d="M0 390 L170 210 L280 350 L420 150 L560 360 L710 190 L900 390 V560 H0Z" fill="#173c35cc"/><path d="M300 330 L420 150 L500 320 L456 290 L420 240 L382 296Z" fill="#fff9"/><path d="M430 330 L470 120 L505 330Z M520 330 L560 105 L595 330Z M610 330 L645 145 L680 330Z" fill="#213b34"/><g filter="url(#s)"><rect x="42" y="390" width="816" height="125" rx="26" fill="#0b201bcc"/><text x="72" y="445" font-family="Arial,sans-serif" font-size="42" font-weight="700" fill="white">Torres del Paine</text><text x="72" y="485" font-family="Arial,sans-serif" font-size="23" fill="#e8f4ef">פסגות, אגמים ורוח · 2</text></g></svg>